<?xml version="1.0" encoding="UTF-8"?><svg id="Livello_2" xmlns="http://www.w3.org/2000/svg" viewBox="0 0 340 280"><defs><style>.cls-1{fill:#50ffff;}.cls-2{fill:#5054ff;}.cls-3{fill:#50a7ff;}.cls-4{fill:#5000ff;}</style></defs><g id="Livello_1-2"><g><g><path class="cls-2" d="M85.27,14.73C53.8-16.74,0,5.55,0,50.05H0c0,27.59,22.36,49.95,49.95,49.95h120.05S85.27,14.73,85.27,14.73Z"/><path class="cls-3" d="M254.73,185.27c31.47,31.47,85.27,9.18,85.27-35.32h0c0-27.59-22.36-49.95-49.95-49.95h-120.05s84.73,85.27,84.73,85.27Z"/><circle class="cls-4" cx="50" cy="150" r="50"/><circle class="cls-1" cx="290" cy="50" r="50"/></g><g><path d="M6.32,279.18v-29.07H0v-7.15H6.32v-3.85c0-1.97,.35-3.73,1.07-5.29,.71-1.56,1.83-2.78,3.37-3.68,1.53-.89,3.54-1.34,6.01-1.34,.82,0,1.66,.05,2.51,.14,.85,.09,1.66,.22,2.44,.38,.78,.16,1.47,.36,2.06,.58v5.98h-4.06c-1.56,0-2.69,.29-3.4,.86-.71,.57-1.07,1.46-1.07,2.65v3.57h8.52v7.15H15.26v29.07H6.32Z"/><path d="M29,279.18v-36.22h7.35l.69,6.05h.48c.5-1.19,1.16-2.31,1.96-3.37,.8-1.05,1.83-1.9,3.09-2.54,1.26-.64,2.72-.96,4.37-.96,.78,0,1.52,.07,2.23,.21,.71,.14,1.32,.3,1.82,.48v8.11h-3.64c-1.65,0-3.06,.25-4.23,.76-1.17,.5-2.14,1.23-2.92,2.16-.78,.94-1.35,2.03-1.72,3.26-.37,1.24-.55,2.61-.55,4.12v17.94h-8.93Z"/><path d="M74.02,280c-4.26,0-7.87-.68-10.82-2.03-2.95-1.35-5.21-3.43-6.77-6.22-1.56-2.79-2.34-6.35-2.34-10.65s.77-7.86,2.3-10.65c1.54-2.79,3.78-4.88,6.74-6.25s6.54-2.06,10.76-2.06,7.59,.68,10.41,2.03c2.82,1.35,4.94,3.38,6.36,6.08,1.42,2.7,2.13,6.09,2.13,10.17v2.89h-29.42c.09,2.25,.56,4.09,1.41,5.53,.85,1.44,2.06,2.5,3.64,3.16,1.58,.66,3.52,1,5.81,1,1.01,0,2.06-.13,3.16-.38,1.1-.25,2.11-.63,3.02-1.13,.92-.5,1.68-1.17,2.3-1.99,.62-.82,.95-1.79,1-2.89h8.93c0,2.06-.43,3.92-1.3,5.57-.87,1.65-2.12,3.06-3.75,4.23-1.63,1.17-3.59,2.06-5.88,2.68-2.29,.62-4.86,.93-7.7,.93Zm-10.58-22.82h20c0-1.42-.24-2.63-.72-3.64-.48-1.01-1.16-1.84-2.03-2.51-.87-.66-1.88-1.15-3.02-1.44-1.15-.3-2.38-.45-3.71-.45-2.06,0-3.85,.3-5.36,.89-1.51,.6-2.69,1.49-3.54,2.68-.85,1.19-1.39,2.68-1.62,4.47Z"/><path d="M118.9,280c-4.26,0-7.87-.68-10.82-2.03-2.96-1.35-5.21-3.43-6.77-6.22-1.56-2.79-2.34-6.35-2.34-10.65s.77-7.86,2.3-10.65c1.53-2.79,3.78-4.88,6.74-6.25,2.95-1.37,6.54-2.06,10.75-2.06s7.6,.68,10.41,2.03c2.82,1.35,4.94,3.38,6.36,6.08,1.42,2.7,2.13,6.09,2.13,10.17v2.89h-29.42c.09,2.25,.56,4.09,1.41,5.53s2.06,2.5,3.64,3.16c1.58,.66,3.52,1,5.81,1,1.01,0,2.06-.13,3.16-.38,1.1-.25,2.11-.63,3.02-1.13,.92-.5,1.68-1.17,2.3-1.99,.62-.82,.95-1.79,1-2.89h8.93c0,2.06-.44,3.92-1.31,5.57-.87,1.65-2.12,3.06-3.75,4.23-1.63,1.17-3.59,2.06-5.88,2.68-2.29,.62-4.86,.93-7.7,.93Zm-10.58-22.82h20c0-1.42-.24-2.63-.72-3.64-.48-1.01-1.16-1.84-2.03-2.51-.87-.66-1.88-1.15-3.02-1.44-1.15-.3-2.38-.45-3.71-.45-2.06,0-3.85,.3-5.36,.89-1.51,.6-2.69,1.49-3.54,2.68-.85,1.19-1.39,2.68-1.61,4.47Z"/><path d="M145.43,279.18v-36.22h7.35l.69,5.5h.55c1.05-1.42,2.29-2.6,3.71-3.54,1.42-.94,2.97-1.64,4.64-2.1,1.67-.46,3.38-.69,5.12-.69,2.84,0,5.27,.47,7.28,1.41,2.02,.94,3.56,2.41,4.64,4.4,1.08,1.99,1.61,4.59,1.61,7.8v23.44h-8.93v-21.86c0-1.42-.18-2.61-.55-3.57-.37-.96-.89-1.73-1.58-2.3-.69-.57-1.52-.98-2.51-1.24-.99-.25-2.07-.38-3.26-.38-1.74,0-3.36,.39-4.84,1.17-1.49,.78-2.69,1.86-3.61,3.23-.92,1.37-1.37,2.98-1.37,4.81v20.14h-8.93Z"/><path d="M201.58,280c-1.56,0-3.13-.15-4.71-.45-1.58-.3-3.02-.82-4.33-1.58-1.3-.76-2.35-1.81-3.13-3.16-.78-1.35-1.17-3.1-1.17-5.26,0-2.7,.68-4.87,2.03-6.5,1.35-1.63,3.25-2.86,5.7-3.71,2.45-.85,5.35-1.41,8.69-1.68,3.34-.27,6.99-.41,10.93-.41v-2.27c0-1.28-.26-2.36-.79-3.23-.53-.87-1.4-1.52-2.61-1.96-1.21-.43-2.9-.65-5.05-.65-1.88,0-3.45,.17-4.71,.52s-2.2,.8-2.82,1.37c-.62,.57-.93,1.23-.93,1.96v.89h-8.8c-.05-.23-.07-.45-.07-.65v-.72c0-2.11,.7-3.94,2.1-5.5,1.4-1.56,3.41-2.76,6.05-3.61,2.64-.85,5.81-1.27,9.52-1.27s6.96,.42,9.49,1.27c2.52,.85,4.41,2.14,5.67,3.88,1.26,1.74,1.89,3.99,1.89,6.74v16.29c0,.87,.22,1.51,.65,1.92,.43,.41,1.02,.62,1.75,.62h2.82v5.98c-.46,.18-1.2,.41-2.23,.69-1.03,.27-2.23,.41-3.61,.41-1.6,0-2.92-.22-3.95-.65-1.03-.43-1.83-1.05-2.41-1.86-.57-.8-.97-1.73-1.2-2.78h-.48c-1.01,1.1-2.23,2.05-3.68,2.85-1.44,.8-3.05,1.42-4.81,1.86-1.77,.43-3.7,.65-5.81,.65Zm2.47-7.15c1.42,0,2.82-.18,4.19-.55,1.37-.37,2.61-.88,3.71-1.55,1.1-.66,1.98-1.5,2.65-2.51,.66-1.01,1-2.13,1-3.37v-1.72c-3.8,0-7.08,.16-9.83,.48-2.75,.32-4.86,.91-6.32,1.75-1.47,.85-2.2,2.05-2.2,3.61,0,.92,.3,1.66,.89,2.23,.59,.57,1.41,.99,2.44,1.24,1.03,.25,2.19,.38,3.47,.38Z"/><path d="M234.64,279.18v-36.22h7.35l.69,5.5h.55c1.01-1.42,2.18-2.6,3.5-3.54,1.33-.94,2.78-1.64,4.36-2.1,1.58-.46,3.2-.69,4.85-.69,2.75,0,5.1,.5,7.04,1.51,1.95,1.01,3.4,2.61,4.36,4.81h.55c1.05-1.42,2.27-2.6,3.64-3.54,1.37-.94,2.86-1.64,4.47-2.1,1.6-.46,3.25-.69,4.95-.69,2.7,0,5,.46,6.91,1.37,1.9,.92,3.37,2.36,4.4,4.33,1.03,1.97,1.55,4.54,1.55,7.7v23.64h-8.93v-21.92c0-1.42-.17-2.61-.52-3.57-.34-.96-.82-1.72-1.44-2.27s-1.36-.95-2.23-1.2c-.87-.25-1.83-.38-2.89-.38-1.65,0-3.16,.39-4.54,1.17-1.37,.78-2.47,1.86-3.3,3.23-.83,1.37-1.24,2.98-1.24,4.81v20.14h-8.93v-21.92c0-1.42-.17-2.61-.52-3.57-.34-.96-.82-1.72-1.44-2.27s-1.36-.95-2.23-1.2c-.87-.25-1.86-.38-2.96-.38-1.6,0-3.1,.39-4.5,1.17-1.4,.78-2.51,1.86-3.33,3.23-.82,1.37-1.24,2.98-1.24,4.81v20.14h-8.93Z"/><path d="M321.24,280c-4.26,0-7.87-.68-10.82-2.03-2.96-1.35-5.21-3.43-6.77-6.22-1.56-2.79-2.34-6.35-2.34-10.65s.77-7.86,2.3-10.65c1.53-2.79,3.78-4.88,6.74-6.25,2.95-1.37,6.54-2.06,10.75-2.06s7.6,.68,10.41,2.03c2.82,1.35,4.94,3.38,6.36,6.08,1.42,2.7,2.13,6.09,2.13,10.17v2.89h-29.42c.09,2.25,.56,4.09,1.41,5.53s2.06,2.5,3.64,3.16c1.58,.66,3.52,1,5.81,1,1.01,0,2.06-.13,3.16-.38,1.1-.25,2.11-.63,3.02-1.13,.92-.5,1.68-1.17,2.3-1.99,.62-.82,.95-1.79,1-2.89h8.93c0,2.06-.44,3.92-1.31,5.57-.87,1.65-2.12,3.06-3.75,4.23-1.63,1.17-3.59,2.06-5.88,2.68-2.29,.62-4.86,.93-7.7,.93Zm-10.58-22.82h20c0-1.42-.24-2.63-.72-3.64-.48-1.01-1.16-1.84-2.03-2.51-.87-.66-1.88-1.15-3.02-1.44-1.15-.3-2.38-.45-3.71-.45-2.06,0-3.85,.3-5.36,.89-1.51,.6-2.69,1.49-3.54,2.68-.85,1.19-1.39,2.68-1.61,4.47Z"/></g></g></g></svg>