<svg xmlns="http://www.w3.org/2000/svg" width="32" height="32" viewBox="0 0 32 32"><g transform="translate(0 32)"><path d="M0,0H32V-32H0Z" fill="#5000ff" fill-rule="evenodd"/><path d="M7.529-16a3.531,3.531,0,0,1,3.529,3.529A3.531,3.531,0,0,1,7.529-8.941,3.531,3.531,0,0,1,4-12.471,3.531,3.531,0,0,1,7.529-16Zm0,0A3.531,3.531,0,0,1,4-19.529a3.526,3.526,0,0,1,6.021-2.492L16-16ZM21.979-9.979v.007h-.007l-5.979-6.021h8.478A3.525,3.525,0,0,1,28-12.471,3.526,3.526,0,0,1,21.979-9.979Zm2.492-13.08A3.531,3.531,0,0,1,28-19.529,3.531,3.531,0,0,1,24.471-16a3.531,3.531,0,0,1-3.529-3.529A3.531,3.531,0,0,1,24.471-23.059Z" fill="#fff" fill-rule="evenodd"/></g></svg>